<svg width="299" height="240" viewBox="0 0 299 240" fill="none" xmlns="http://www.w3.org/2000/svg">
<path d="M142.8 119.8C140.933 119.8 139.467 119.533 138.4 119C136 117.933 134.8 117.4 134.8 117.4C134.8 117.133 136 116.2 138.4 114.6C140.267 113.533 142.4 113.133 144.8 113.4C147.467 113.667 149.333 113.667 150.4 113.4C156.8 112.067 164.533 110.2 173.6 107.8C182.667 105.4 193.2 100.6 205.2 93.4L220.8 84.2C222.133 83.4 223.067 83.5333 223.6 84.6C223.067 84.8667 222.8 85.5333 222.8 86.6C224.667 86.6 225.733 85.9333 226 84.6C226.533 83 227.067 81.5333 227.6 80.2H228L236.8 74.6C238.133 74.3333 239.333 74.4667 240.4 75C241.733 75.5333 242.933 75.4 244 74.6C243.467 73.5333 242.933 72.8667 242.4 72.6C241.867 72.0667 242.133 71.4 243.2 70.6L244.8 69.4C246.933 68.0667 248.8 67.1333 250.4 66.6C252.267 65.8 253.6 64.3333 254.4 62.2C259.733 57.4 264.267 52.6 268 47.8C271.733 43 273.6 38.4667 273.6 34.2C273.6 29.6667 271.067 25.8 266 22.6C261.2 19.1333 252.533 16.6 240 15L236.8 14.6C234.933 14.3333 233.2 14.0667 231.6 13.8C230 13.5333 228.4 13 226.8 12.2C227.067 13.2667 226.533 13.8 225.2 13.8C221.467 13.5333 217.733 13.4 214 13.4C210.267 13.1333 206.667 13 203.2 13C197.333 13 191.867 13.1333 186.8 13.4C182 13.6667 178.533 13.9333 176.4 14.2L163.2 15.8C161.6 15.2667 160 15.5333 158.4 16.6H158C156.133 16.6 154.267 16.8667 152.4 17.4C150.533 17.6667 148.533 18.0667 146.4 18.6C145.333 18.8667 144.133 19.1333 142.8 19.4C141.467 19.4 140.133 19.6667 138.8 20.2L130.8 21.8C128.933 23.1333 126.533 23.8 123.6 23.8H123.2L115.6 25.8H115.2C114.133 25.8 113.2 25.2667 112.4 24.2C111.6 22.8667 111.067 21.6667 110.8 20.6C110.533 22.2 110.133 23.9333 109.6 25.8C109.067 27.6667 108.133 28.6 106.8 28.6L95.6 32.2C94.5333 32.4667 93.3333 32.6 92 32.6C90.6667 32.6 89.3333 32.6 88 32.6C86.6667 32.6 85.6 32.7333 84.8 33C84 33.2667 83.4667 33.9333 83.2 35C83.2 35.8 82.8 36.4667 82 37C80.9333 38.0667 79.6 38.8667 78 39.4C76.4 39.6667 74.9333 40.0667 73.6 40.6H73.2C72.6667 40.6 71.8667 40.3333 70.8 39.8C70 39.2667 69.3333 39.1333 68.8 39.4C68.5333 39.6667 68.2667 40.3333 68 41.4C67.7333 42.4667 67.3333 43.1333 66.8 43.4V43.8C65.2 44.3333 63.4667 45 61.6 45.8C59.7333 46.6 58 47.4 56.4 48.2C54.8 49 52.9333 49.9333 50.8 51C48.9333 51.8 47.3333 52.3333 46 52.6C45.4667 52.6 45.2 52.0667 45.2 51C45.4667 49.9333 45.3333 49.6667 44.8 50.2C43.2 51 41.6 52.4667 40 54.6C38.4 56.7333 36.9333 58.2 35.6 59C34.2667 60.0667 32.8 60.6 31.2 60.6C29.8667 60.6 28.5333 61.1333 27.2 62.2C26.4 63 25.6 64.3333 24.8 66.2C24.2667 67.8 23.6 69 22.8 69.8C20.6667 71.9333 18.5333 74.4667 16.4 77.4C16.1333 77.9333 15.7333 78.4667 15.2 79C14.6667 79.5333 14.4 80.2 14.4 81H14C12.4 84.2 11.6 87.2667 11.6 90.2C11.6 96.0667 13.7333 100.333 18 103C22.5333 105.667 27.6 107.667 33.2 109C34.2667 109.267 35.2 109.667 36 110.2C37.0667 110.733 38.1333 110.867 39.2 110.6C40.2667 110.067 41.2 109.8 42 109.8C43.3333 109.8 44.4 110.333 45.2 111.4L51.2 112.6C54.4 113.4 56 114.2 56 115C56 115.533 55.2 116.067 53.6 116.6C52.2667 116.867 50.9333 117 49.6 117C44.8 117 38.9333 116.067 32 114.2C25.0667 112.067 18.8 109 13.2 105C7.6 101 4.4 95.8 3.6 89.4C3.6 89.1333 3.2 88.4667 2.4 87.4C1.86667 86.3333 1.46667 85.4 1.2 84.6C0.4 82.2 4.76837e-07 79.8 4.76837e-07 77.4C4.76837e-07 72.8667 0.933334 68.6 2.8 64.6C4.93333 60.6 7.73333 56.8667 11.2 53.4C12.5333 52.0667 13.7333 51.1333 14.8 50.6C16.1333 50.0667 17.6 49.2667 19.2 48.2C20.8 47.1333 21.6 46.2 21.6 45.4C21.6 44.6 22.4 43.6667 24 42.6C26.1333 41.2667 29.0667 39.6667 32.8 37.8C36.8 35.9333 39.8667 34.4667 42 33.4C43.6 33.4 45.0667 32.7333 46.4 31.4C51.7333 29 57.3333 26.8667 63.2 25C69.0667 22.8667 74.9333 20.8667 80.8 19C81.8667 18.7333 82.8 18.4667 83.6 18.2C84.4 17.9333 85.2 17.8 86 17.8C87.0667 17.8 88.1333 18.2 89.2 19C89.2 18.4667 89.0667 18.0667 88.8 17.8C88.8 17.2667 89.0667 16.8667 89.6 16.6C96.2667 14.4667 102.8 12.4667 109.2 10.6C115.867 8.46666 122.4 7.39999 128.8 7.39999H129.2C129.733 7.39999 130.267 7.26666 130.8 7C131.6 6.73333 132.267 6.59999 132.8 6.59999H133.2L136 6.2C137.6 6.99999 139.2 6.73333 140.8 5.39999C148 4.06666 154.667 3.13333 160.8 2.59999C166.933 1.79999 172.133 1.39999 176.4 1.39999H178C179.333 1.39999 180.4 1.26665 181.2 0.99999H185.2C186 0.733327 186.8 0.733327 187.6 0.99999C188.667 0.99999 189.467 0.99999 190 0.99999H190.4C193.6 0.99999 196.933 1.13332 200.4 1.39999C204.133 1.39999 207.867 1.39999 211.6 1.39999H212C213.067 1.39999 213.867 1.79999 214.4 2.59999C215.2 3.13333 216.133 2.86666 217.2 1.79999C224.4 2.06666 231.6 2.86666 238.8 4.2C244.133 4.99999 250.267 6.59999 257.2 8.99999C264.4 11.4 270.667 15.1333 276 20.2C281.333 25 284 31.8 284 40.6C284 44.8667 283.467 48.7333 282.4 52.2C281.6 55.4 280 58.3333 277.6 61C275.467 63.6667 272.933 66.3333 270 69C269.2 69.8 268.4 70.7333 267.6 71.8C266.8 72.8667 265.867 73.8 264.8 74.6C264.533 74.8667 264 75.1333 263.2 75.4C262.667 75.4 262.133 75.5333 261.6 75.8C261.067 76.3333 260.533 76.7333 260 77C259.467 77.2667 258.8 77.6667 258 78.2C249.2 84.0667 241.6 88.4667 235.2 91.4C229.067 94.0667 220.933 97.1333 210.8 100.6C207.6 101.667 205.333 102.333 204 102.6C202.667 102.6 201.6 102.867 200.8 103.4C194.133 105.267 186.533 107.933 178 111.4C169.467 114.867 162.133 117.133 156 118.2C155.467 118.467 153.733 118.867 150.8 119.4C148.133 119.667 145.467 119.8 142.8 119.8ZM262.4 239.4C262.133 239.4 261.2 239.4 259.6 239.4C258 239.4 257.067 239.267 256.8 239C255.733 238.467 255.333 237.667 255.6 236.6C255.867 235.533 255.467 235 254.4 235C253.333 235 252.667 235.4 252.4 236.2C252.133 237.267 251.333 237.8 250 237.8H249.6C248.267 237.8 247.067 237.133 246 235.8C245.2 234.467 244.267 234.067 243.2 234.6C241.6 235.4 240.267 235.8 239.2 235.8C237.333 235.8 235.867 235.133 234.8 233.8C233.733 232.467 232.267 231.267 230.4 230.2C230.133 230.2 229.6 230.333 228.8 230.6C228.267 230.867 227.733 230.867 227.2 230.6C226.933 230.333 224.8 229.133 220.8 227C216.8 225.133 212.8 223.133 208.8 221C204.8 218.867 202.4 217.533 201.6 217C200.8 215.133 200 214.067 199.2 213.8C198.667 213.533 197.467 213.4 195.6 213.4C194.533 212.6 193.067 211.667 191.2 210.6C189.6 209.8 188.533 208.733 188 207.4C184.533 206.067 181.467 204.467 178.8 202.6C176.133 200.733 173.333 198.6 170.4 196.2C169.867 195.667 169.2 195.267 168.4 195C167.6 194.733 166.933 194.333 166.4 193.8L155.6 185.8C155.067 184.2 153.067 182.467 149.6 180.6C146.133 178.467 143.733 176.467 142.4 174.6C142.133 174.333 142 174.067 142 173.8C142 172.467 141.333 171.8 140 171.8C139.2 171.8 138.4 171.8 137.6 171.8C136.8 171.8 136.4 171.267 136.4 170.2C135.6 168.333 133.6 166.2 130.4 163.8C127.2 161.133 124.267 158.467 121.6 155.8C118.933 153.133 118 150.867 118.8 149C117.733 148.733 116.667 148.6 115.6 148.6C114.533 148.6 113.733 148.2 113.2 147.4C112.133 145.267 110.8 143.533 109.2 142.2C108.4 141.667 107.6 140.867 106.8 139.8L104.8 143.8C103.733 145.4 102.667 147.267 101.6 149.4C100.533 151.533 99.3333 153.8 98 156.2L94.4 163.4C94.1333 164.2 93.7333 164.6 93.2 164.6C92.9333 164.333 92.5333 164.2 92 164.2C92.5333 165.267 92.8 166.2 92.8 167C92.8 169.133 91.6 171.4 89.2 173.8C85.7333 181.8 82.5333 189.4 79.6 196.6C76.6667 203.8 74.4 210.467 72.8 216.6C72.2667 218.733 71.4667 219.8 70.4 219.8C68.5333 219.8 67.6 217.8 67.6 213.8C67.6 210.067 69.0667 204.2 72 196.2L71.6 196.6C71.3333 196.6 70.4 196.867 68.8 197.4C67.2 197.933 66.1333 198.067 65.6 197.8C62.1333 197.8 60.4 196.6 60.4 194.2C60.4 187.8 61.7333 181.133 64.4 174.2L74.8 147C75.3333 146.2 75.6 145.4 75.6 144.6C75.8667 143.8 76.1333 143 76.4 142.2L76.8 141.8V141.4L78.4 133C78.9333 130.6 79.2 128.467 79.2 126.6C79.4667 124.733 79.6 122.467 79.6 119.8C79.6 119 80 118.467 80.8 118.2C80.8 116.333 80.9333 114.6 81.2 113C81.4667 111.133 81.6 109.267 81.6 107.4V105.4C81.3333 105.133 81.2 104.6 81.2 103.8C81.2 103.267 81.0667 102.733 80.8 102.2C80.8 101.667 80.8 101.133 80.8 100.6C80.8 100.333 80.8 100.2 80.8 100.2C81.0667 99.9333 81.2 99.6667 81.2 99.4C81.7333 96.2 82.6667 93.2667 84 90.6C85.6 87.9333 87.3333 87.2667 89.2 88.6C89.7333 88.8667 90.6667 90.4667 92 93.4C93.6 96.3333 94.9333 98.4667 96 99.8C97.0667 102.467 98.4 105 100 107.4C101.6 109.533 102.933 111.933 104 114.6C104.8 115.933 105.2 117 105.2 117.8C105.2 118.333 106.133 118.867 108 119.4C115.733 105.533 123.467 92.3333 131.2 79.8C139.2 67 146.667 57.1333 153.6 50.2L154.8 49.4L156 47.4C156 47.4 156.267 47.2667 156.8 47C157.333 46.7333 157.733 46.8667 158 47.4C158 47.6667 157.733 48.2 157.2 49C156.933 49.8 156.8 50.3333 156.8 50.6C157.6 51.9333 158.533 52.0667 159.6 51C159.867 50.4667 159.867 49.2667 159.6 47.4C159.333 45.5333 159.333 44.6 159.6 44.6C160.133 44.3333 160.4 44.3333 160.4 44.6C160.667 44.8667 160.933 45 161.2 45C161.733 45 162 44.6 162 43.8C162 43 162.133 42.4667 162.4 42.2C165.333 41.1333 168 40.6 170.4 40.6C171.733 40.6 173.6 41.2667 176 42.6C178.667 43.9333 180 45.8 180 48.2C180 49.5333 179.333 51.1333 178 53C177.733 53.2667 177.467 53.8 177.2 54.6C176.933 55.1333 176.533 55.6667 176 56.2C175.733 56.4667 175.467 56.6 175.2 56.6C175.2 56.3333 174.933 56.3333 174.4 56.6C174.133 56.8667 173.733 57 173.2 57C172.933 56.7333 172.533 56.6 172 56.6C171.467 56.6 171.333 57 171.6 57.8C172.133 58.6 172.267 59.1333 172 59.4C171.733 59.6667 171.467 59.6667 171.2 59.4C170.933 59.1333 170.533 59.2667 170 59.8C169.733 60.0667 169.867 60.3333 170.4 60.6C171.2 60.6 171.333 60.8667 170.8 61.4C169.2 63 167.2 64.7333 164.8 66.6C162.667 68.2 160.533 69.8 158.4 71.4C158.133 71.6667 157.867 71.6667 157.6 71.4C157.333 70.8667 157.067 70.7333 156.8 71L154 75C151.333 77.6667 148.667 80.4667 146 83.4C143.333 86.3333 140.533 89.6667 137.6 93.4C136.8 95 135.867 96.4667 134.8 97.8C133.733 99.1333 132.267 99.6667 130.4 99.4C130.4 99.6667 130.667 100.067 131.2 100.6C131.733 100.867 131.733 101.4 131.2 102.2C125.333 110.2 119.867 118.467 114.8 127L123.2 137.4C124 138.467 124.4 139.667 124.4 141C124.4 142.067 124.667 142.733 125.2 143C125.733 143 126.133 142.867 126.4 142.6C126.933 142.333 127.333 142.2 127.6 142.2C128.4 142.2 129.067 142.867 129.6 144.2C130.4 145.267 131.2 146.2 132 147C133.067 148.067 134.133 149.133 135.2 150.2C136.533 151.267 137.867 152.467 139.2 153.8V154.2C140.267 155 142 156.467 144.4 158.6C146.8 160.733 149.067 162.867 151.2 165C153.333 166.867 154.533 168.333 154.8 169.4C155.333 170.467 156.133 171.133 157.2 171.4C158.267 171.667 159.2 172.067 160 172.6C162.133 174.2 164.267 175.8 166.4 177.4C168.8 179 171.067 180.733 173.2 182.6C174 183.133 174.267 183.667 174 184.2C174 184.733 174.133 185.267 174.4 185.8C174.933 186.067 175.867 186.467 177.2 187C178.8 187.267 180 187.667 180.8 188.2C186.933 192.2 193.067 196.067 199.2 199.8C205.333 203.8 211.733 207.533 218.4 211C225.333 214.467 232.4 217.533 239.6 220.2C246.8 222.867 254.4 224.2 262.4 224.2C268.8 224.2 274.933 223 280.8 220.6C286.933 218.2 290 213.8 290 207.4C290 205.267 289.6 203 288.8 200.6C288.533 199.267 288 197.8 287.2 196.2C286.667 194.6 285.733 193.4 284.4 192.6C283.6 191 282.133 189.933 280 189.4C278.667 188.067 277.467 186.733 276.4 185.4C275.333 183.8 273.733 183.133 271.6 183.4C270.8 182.6 270.4 181.8 270.4 181C270.4 179.933 270.8 179.133 271.6 178.6C272.667 177.8 273.867 177.667 275.2 178.2C277.067 179.267 278.533 180.733 279.6 182.6C280.933 184.2 282.667 185.133 284.8 185.4L286.8 187.4C287.6 188.733 288.4 189.8 289.2 190.6C290.267 191.4 291.2 192.467 292 193.8C292.8 194.867 293.6 196.333 294.4 198.2C295.467 200.333 296.133 202.067 296.4 203.4C296.933 204.467 297.067 205.533 296.8 206.6C296.8 207.667 297.2 208.867 298 210.2C298.533 218.467 295.867 225.133 290 230.2C284.133 235.533 277.333 238.467 269.6 239C268.8 238.467 268 238.067 267.2 237.8C266.667 237.533 266.133 237.4 265.6 237.4C264.8 237.4 263.733 238.067 262.4 239.4ZM77.2 183.4C77.7333 183.667 78 183.667 78 183.4C78.2667 182.867 78.4 182.6 78.4 182.6C78.9333 181.8 79.2 181 79.2 180.2C79.2 179.133 79.3333 178.2 79.6 177.4C84.4 165.4 90.5333 152.333 98 138.2C98.5333 137.133 99.0667 136.867 99.6 137.4C100.4 137.667 100.933 137.533 101.2 137C101.733 136.467 101.867 135.8 101.6 135C101.6 134.2 101.6 133.533 101.6 133C101.333 132.467 100.933 132.067 100.4 131.8C99.8667 131.533 99.4667 131.133 99.2 130.6C98.1333 127.667 96.6667 125.8 94.8 125C93.2 123.933 92 122.333 91.2 120.2C90.1333 117.8 89.0667 116.067 88 115C87.2 113.667 86.1333 112.067 84.8 110.2L83.6 123.8C83.3333 126.467 82.9333 129.533 82.4 133C82.1333 136.467 81.4667 139.667 80.4 142.6C80.1333 143.4 80 144.6 80 146.2V150.6C80 151.133 79.8667 151.8 79.6 152.6C79.6 153.4 79.6 154.2 79.6 155L78.8 163C78.5333 165.667 78.1333 168.467 77.6 171.4C77.0667 174.067 76.8 176.6 76.8 179C76.8 181.133 76.9333 182.6 77.2 183.4Z" fill="#FFEAE6"/>
</svg>
