<svg width="50" height="30" viewBox="0 0 50 30" fill="none" xmlns="http://www.w3.org/2000/svg">
<path d="M25.0514 29.4914H26.4138C27.3837 29.4914 28.297 29.0391 28.8835 28.2672L37.5257 16.9055L46.1679 28.2672C46.7544 29.038 47.6677 29.4914 48.6376 29.4914H50L38.9747 14.9994L49.5058 1.15344H48.1434C47.1735 1.15344 46.2602 1.60574 45.6737 2.37765L37.5245 13.0921L29.3742 2.3765C28.7877 1.60574 27.8744 1.15344 26.9045 1.15344H25.5421L36.0732 14.9994L25.0514 29.4914Z" fill="#FEFEFE"/>
<path d="M25.4012 16.1532V12.6917C25.4012 4.98993 18.5371 -1.10919 10.5888 0.170398C4.40134 1.16615 0 6.75759 0 13.0194V13.8455V16.1532V16.317C0 23.8781 5.51553 29.916 12.5482 29.9991C18.4274 30.0683 23.3888 26.1407 24.9105 20.7696H23.7236C23.0077 20.7696 22.3588 21.1793 22.0483 21.8231C20.0404 25.9711 15.3643 28.5868 10.239 27.4099C5.51437 26.3242 2.3092 21.9004 2.3092 17.0566V16.1532H25.4012ZM2.3092 13.5109C2.3092 8.07872 5.5467 3.63765 10.3037 2.57497C17.0858 1.06115 23.092 6.17491 23.092 12.6917V13.8455H2.3092V13.5109Z" fill="#FEFEFE"/>
</svg>
