 <svg
      width="50"
      height="50"
      viewBox="0 0 50 50"
      fill="none"
      xmlns="http://www.w3.org/2000/svg"
    >
      <path
        d="M25 0C11.1925 0 0 11.1925 0 25C0 36.1088 7.25125 45.5137 17.275 48.77H32.725C42.7488 45.5137 50 36.1088 50 25C50 11.1925 38.8075 0 25 0Z"
        fill="url(#paint0_linear_775_17961)"
      />
      <path
        d="M40.93 23.901C40.93 21.0135 39.9525 18.6185 38.2837 16.741C38.465 16.3347 38.6537 15.7897 38.7475 15.1047C38.9625 13.5422 38.7087 12.6047 38.4937 11.6872C38.2787 10.7697 38.025 10.1247 38.025 10.1247C38.025 10.1247 36.8725 10.0072 35.8962 10.3397C34.92 10.6722 34.08 10.926 32.8687 11.6485C32.3025 11.986 31.7325 12.356 31.2812 12.656C29.3525 12.121 27.2312 11.846 25 11.846C22.7487 11.846 20.6087 12.1222 18.6662 12.661C18.2137 12.3597 17.64 11.9872 17.07 11.6472C15.8587 10.9247 15.0187 10.671 14.0425 10.3385C13.0662 10.006 11.9137 10.1235 11.9137 10.1235C11.9137 10.1235 11.66 10.7685 11.445 11.686C11.23 12.6035 10.9762 13.541 11.1912 15.1035C11.2875 15.806 11.4825 16.361 11.6687 16.7697C10.0312 18.636 9.07124 21.016 9.07124 23.8997C9.07124 31.3785 13.1112 34.7922 20.4725 35.6935C19.6137 36.601 19.0375 37.7635 18.8437 39.0572C18.36 39.2697 17.8025 39.4697 17.2662 39.5497C15.8862 39.7585 14.4275 39.5497 13.725 39.1335C13.0225 38.7172 12.1887 37.7797 11.5637 36.8672C11.0362 36.0972 10.275 35.2035 9.58499 34.8885C8.67374 34.4722 7.78749 34.316 7.29374 34.3935C6.79874 34.4722 6.56499 34.836 6.66874 35.0972C6.77249 35.3572 7.26749 35.7485 7.78874 36.0347C8.30999 36.321 9.11749 37.1022 9.58624 37.8572C10.1087 38.6997 10.2112 39.186 10.6537 40.1485C10.965 40.826 12.03 41.6722 12.7887 42.1272C13.44 42.5185 14.7412 42.741 16.1487 42.8047C16.635 42.8272 17.7837 42.6847 18.7525 42.5472V47.2347C18.7525 48.0335 18.0212 48.641 17.2637 48.501C19.695 49.3185 22.2912 49.7335 25 49.7335C27.7075 49.7335 30.3037 49.3185 32.7375 48.5035C31.9812 48.6422 31.25 48.0347 31.25 47.236V39.981C31.25 38.3197 30.5912 36.8185 29.5337 35.6997C36.8412 34.8222 40.93 31.4897 40.93 23.901ZM9.04874 35.6422C8.85624 35.5435 8.75249 35.361 8.81749 35.2322C8.88249 35.1035 9.09249 35.0797 9.28499 35.1785C9.47749 35.2772 9.58124 35.4597 9.51624 35.5885C9.45124 35.7172 9.24124 35.741 9.04874 35.6422ZM10.5637 36.586C10.4625 36.696 10.245 36.661 10.0775 36.5085C9.90999 36.356 9.85624 36.1422 9.95749 36.0322C10.0587 35.9222 10.2762 35.9572 10.4437 36.1097C10.6112 36.2622 10.665 36.476 10.5637 36.586ZM11.5062 38.1485C11.3787 38.2385 11.1625 38.1547 11.0237 37.961C10.885 37.7672 10.8762 37.536 11.0037 37.446C11.1312 37.356 11.3475 37.4397 11.4862 37.6335C11.6237 37.8272 11.6337 38.0585 11.5062 38.1485ZM12.86 39.3247C12.7737 39.4647 12.5287 39.471 12.3137 39.3397C12.0987 39.2085 11.9937 38.9885 12.08 38.8485C12.1662 38.7085 12.4112 38.7022 12.6262 38.8335C12.8412 38.9647 12.9462 39.1847 12.86 39.3247ZM14.14 40.476C13.8737 40.4435 13.6762 40.2772 13.6987 40.1047C13.72 39.9322 13.9537 39.8197 14.2187 39.8522C14.485 39.8847 14.6825 40.051 14.66 40.2235C14.6387 40.3947 14.4062 40.5085 14.14 40.476ZM16.2037 40.7747C15.92 40.7585 15.6987 40.596 15.71 40.4135C15.7212 40.231 15.96 40.0947 16.2437 40.111C16.5275 40.1272 16.7487 40.2897 16.7375 40.4722C16.7262 40.656 16.4875 40.791 16.2037 40.7747ZM18.1512 40.5797C17.8487 40.5797 17.6037 40.4222 17.6037 40.2285C17.6037 40.0347 17.8487 39.8772 18.1512 39.8772C18.4537 39.8772 18.6987 40.0347 18.6987 40.2285C18.6987 40.4222 18.4525 40.5797 18.1512 40.5797Z"
        fill="#FEFEFE"
      />
      <defs>
        <linearGradient
          id="paint0_linear_775_17961"
          x1="0"
          y1="24.3847"
          x2="50"
          y2="24.3847"
          gradientUnits="userSpaceOnUse"
        >
          <stop stop-color="#4C4C4C" />
          <stop offset="1" stop-color="#343434" />
        </linearGradient>
      </defs>
    </svg>