<svg width="50" height="54" viewBox="0 0 50 54" fill="none" xmlns="http://www.w3.org/2000/svg">
<path d="M27.2548 0.576106C25.8898 -0.193761 24.1102 -0.190308 22.7441 0.576106C15.9017 4.36296 9.05927 8.15094 2.21569 11.9361C0.884016 12.6386 -0.014158 14.0728 0.00016894 15.5613V38.4419C-0.00944645 39.9595 0.935035 41.4074 2.30106 42.1004C4.26675 43.1491 6.17654 44.3043 8.17777 45.2833C10.4894 46.4225 13.3816 46.6744 15.7215 45.4864C17.621 44.5018 18.4646 42.3119 18.4621 40.2995C18.4775 32.7483 18.4646 25.197 18.4681 17.6457C18.5133 17.3101 18.2619 16.9514 17.8969 16.9595C17.0225 16.9456 16.1469 16.9514 15.2725 16.9572C14.9421 16.9259 14.6196 17.2011 14.6446 17.5342C14.6329 25.0367 14.6469 32.5416 14.6375 40.0453C14.6565 41.0832 13.9573 42.0807 12.9599 42.4313C10.6562 43.2411 4.08073 38.9595 4.08073 38.9595C3.83942 38.8474 3.68619 38.585 3.70985 38.3242C3.70985 30.7754 3.71102 23.2264 3.70985 15.6787C3.67667 15.3744 3.86369 15.1003 4.14235 14.9761C10.9622 11.2116 17.7785 7.43762 24.5983 3.67077C24.8352 3.51222 25.1654 3.51271 25.4018 3.67193C32.2216 7.43762 39.0391 11.2081 45.86 14.9728C46.1397 15.0969 46.3187 15.3755 46.2902 15.6787C46.2891 23.2264 46.2925 30.7754 46.2879 38.3233C46.3081 38.5904 46.1704 38.8492 45.9218 38.9664C39.1656 42.7106 32.3325 46.334 25.6375 50.1869C25.3454 50.3548 25.0144 50.5452 24.6871 50.3601C22.9266 49.3834 21.1873 48.3688 19.4325 47.3827C19.2417 47.2633 18.9989 47.212 18.7998 47.3457C18.0131 47.7615 17.2731 48.0982 16.3696 48.4569C15.1008 48.9607 15.3035 49.1667 16.4479 49.8353C18.5 51 20.5556 52.16 22.6077 53.3258C23.9587 54.1713 25.7739 54.2315 27.1683 53.4502C34.0118 49.6681 40.8531 45.8815 47.6979 42.0994C49.0602 41.4026 50.0095 39.9604 49.9999 38.4417V15.5613C50.0131 14.103 49.1493 12.6944 47.8577 11.9814C40.9916 8.17613 34.1221 4.3791 27.2548 0.576106Z" fill="#8CC84B"/>
<path d="M37.5806 17.7548C34.8946 16.3138 31.6992 16.237 28.7144 16.4255C26.5581 16.6391 24.2902 17.2358 22.7192 18.786C21.1079 20.3443 20.7571 22.8607 21.5225 24.895C22.071 26.3325 23.4515 27.2673 24.8792 27.7618C26.7183 28.4129 28.6498 28.6142 30.5819 28.8156C32.3442 28.9992 34.1071 29.183 35.801 29.7081C36.4929 29.938 37.2987 30.2898 37.5106 31.0448C37.7064 31.9389 37.4917 32.9782 36.7679 33.5994C34.4687 35.4244 28.0729 35.1448 25.8012 33.7084C24.8827 33.0964 24.4869 32.0131 24.326 30.9808C24.3081 30.6591 24.0498 30.364 23.7015 30.3885C22.8294 30.3781 21.9573 30.3804 21.0852 30.3874C20.781 30.3617 20.4646 30.5789 20.4479 30.8903C20.2687 35.6186 24.5988 37.6799 28.6614 38.1337C30.9823 38.3554 33.3542 38.3427 35.6398 37.8432C37.3579 37.4509 39.0806 36.7285 40.2633 35.4015C41.7217 33.7886 42.0085 31.3873 41.3544 29.3783C40.8544 27.8792 39.4254 26.9177 37.9646 26.423C35.9781 25.7399 33.6239 25.3727 31.8246 25.2008C29.2094 24.9511 26.1017 25.0531 25.3615 23.3297C25.0663 22.4274 25.3175 21.3069 26.1444 20.7518C28.3323 19.2635 32.7852 19.4612 35.051 20.573C36.0914 21.0955 36.6942 22.1686 36.9431 23.2518C36.9892 23.57 37.2027 23.9021 37.57 23.8883C38.4362 23.9056 39.3023 23.8929 40.1683 23.894C40.4658 23.9149 40.7916 23.7465 40.8496 23.441C40.8129 21.1769 39.66 18.8591 37.5806 17.7548Z" fill="#8CC84B"/>
</svg>
