<svg width="50" height="41" viewBox="0 0 50 41" fill="none" xmlns="http://www.w3.org/2000/svg">
<path fill-rule="evenodd" clip-rule="evenodd" d="M25 0C18.3333 0 14.1667 4.50451 12.5 13.5135C15 9.00901 17.9167 7.31982 21.25 8.44595C23.1519 9.08784 24.5111 10.9535 26.0157 13.0168C28.4667 16.3789 31.3037 20.2703 37.5 20.2703C44.1667 20.2703 48.3333 15.7658 50 6.75676C47.5 11.2613 44.5833 12.9504 41.25 11.8243C39.3481 11.1824 37.9889 9.31682 36.4843 7.2535C34.0333 3.89139 31.1963 0 25 0ZM12.5 20.2703C5.83333 20.2703 1.66667 24.7748 0 33.7838C2.5 29.2793 5.41667 27.5901 8.75 28.7162C10.6519 29.3594 12.0111 31.2237 13.5157 33.287C15.9667 36.6491 18.8037 40.5405 25 40.5405C31.6667 40.5405 35.8333 36.036 37.5 27.027C35 31.5315 32.0833 33.2207 28.75 32.0946C26.8481 31.4527 25.4889 29.5871 23.9843 27.5238C21.5333 24.1617 18.6963 20.2703 12.5 20.2703Z" fill="#38BDF8"/>
</svg>
